<mxfile host="app.diagrams.net" modified="2023-05-16T07:07:17.537Z" agent="Mozilla/5.0 (Windows NT 10.0; Win64; x64) AppleWebKit/537.36 (KHTML, like Gecko) Chrome/113.0.0.0 Safari/537.36" version="21.3.2" etag="DKa57H2aSm1z5G2UpYf3" type="github">
  <diagram name="페이지-1" id="gXkr5lrn7azvCNJI8Dh7">
    <mxGraphModel>
      <root>
        <mxCell id="0" />
        <mxCell id="1" parent="0" />
      </root>
    </mxGraphModel>
  </diagram>
</mxfile>
